/* XPM */
static char * del_xpm[] = {
"15 13 2 1",
" 	c None",
".	c #FF0000",
"...        ....",
".....    ......",
"......  .......",
" ............  ",
"  .........    ",
"    ......     ",
"  .........    ",
"  ..........   ",
"  ....  .....  ",
" ....   ...... ",
" ....     .... ",
" ...       ... ",
" ...       ... "};
