/* XPM */
static char * rewind_xpm[] = {
"20 20 6 1",
" 	c None",
".	c #DEDADE",
"+	c #949594",
"@	c #000000",
"#	c #FFFFFF",
"$	c #8B8D8B",
"....................",
".......++........++.",
"......+@#.......+@#.",
".....+@$#......+@$#.",
"....+@@$#.....+@@$#.",
"...+@@@$#....+@@@$#.",
"..+@@@@$#...+@@@@$#.",
".+@@@@@$#..+@@@@@$#.",
"+@@@@@@$#.+@@@@@@$#.",
".+@@@@@$#..+@@@@@$#.",
"..+@@@@$#...+@@@@$#.",
"...+@@@$#....+@@@$#.",
"....+@@$#.....+@@$#.",
".....+@$#......+@$#.",
"......+@#.......+@#.",
".......+#........+#.",
"....................",
"....................",
"....................",
"...................."};
