/* XPM */
static char * registered_xpm[] = {
"24 24 44 1",
" 	c None",
".	c #D9D8D8",
"+	c #B3CCB2",
"@	c #83BE83",
"#	c #86BF86",
"$	c #BBCFBB",
"%	c #C6D2C5",
"&	c #6AB76A",
"*	c #5FB45F",
"=	c #98C598",
"-	c #91C291",
";	c #A1C7A1",
">	c #D1D5D0",
",	c #67B667",
"'	c #66B666",
")	c #9DC69C",
"!	c #63B563",
"~	c #C7D2C6",
"{	c #D7D7D6",
"]	c #CAD3C9",
"^	c #C2D1C2",
"/	c #CDD4CC",
"(	c #96C496",
"_	c #87BF86",
":	c #6FB86F",
"<	c #60B460",
"[	c #78BB78",
"}	c #65B565",
"|	c #81BE81",
"1	c #A9C9A8",
"2	c #7FBD7E",
"3	c #62B462",
"4	c #A8C9A7",
"5	c #71B971",
"6	c #96C495",
"7	c #61B461",
"8	c #94C393",
"9	c #8AC089",
"0	c #73BA73",
"a	c #7FBD7F",
"b	c #6DB86D",
"c	c #BACEB9",
"d	c #B7CDB6",
"e	c #88C087",
"........................",
"........................",
"........................",
"........................",
"................+@#$....",
"...............%&**=....",
"...............-***;....",
"..............>,**'%....",
"..............)***-.....",
".............>,**!~.....",
".....{]^/....(***_......",
".....]:<[>..>}**!~......",
".....^***|>.1***(.......",
"...../,***(.2**3>.......",
"......4<**<)}**5........",
"......{6***7***8........",
".......>9*****7~........",
"........>0****a.........",
".........~b***c.........",
"..........d5}e{.........",
"........................",
"........................",
"........................",
"........................"};
