/* XPM */
static char * unregistered_xpm[] = {
"24 24 58 1",
" 	c None",
".	c #D9D8D8",
"+	c #D6C3C5",
"@	c #D3B5B7",
"#	c #D2AFB2",
"$	c #C4555F",
"%	c #C1414C",
"&	c #CC858B",
"*	c #C45760",
"=	c #BC2431",
"-	c #C1424C",
";	c #D7CDCE",
">	c #C03C47",
",	c #BC2330",
"'	c #BD2B37",
")	c #BE313D",
"!	c #C3515B",
"~	c #C4535C",
"{	c #C03944",
"]	c #D5BEC0",
"^	c #BE2E3A",
"/	c #C24650",
"(	c #C4565F",
"_	c #BD2936",
":	c #D09FA3",
"<	c #BF3540",
"[	c #C7676F",
"}	c #C65F68",
"|	c #BD2835",
"1	c #CD8E93",
"2	c #D2ACAF",
"3	c #BD2734",
"4	c #BC2633",
"5	c #CD9095",
"6	c #BC2532",
"7	c #CA7980",
"8	c #D9D6D6",
"9	c #BE2F3B",
"0	c #C86D75",
"a	c #CF9A9F",
"b	c #C86F76",
"c	c #BE303C",
"d	c #CF989D",
"e	c #BD2C38",
"f	c #CB848A",
"g	c #C03A46",
"h	c #BD2A37",
"i	c #D5BCBE",
"j	c #C03D48",
"k	c #C55A63",
"l	c #C1434E",
"m	c #C9757C",
"n	c #BF3642",
"o	c #BE323E",
"p	c #C55D66",
"q	c #D0A1A5",
"r	c #BD2C39",
"s	c #CF9CA1",
"........................",
"........................",
"........................",
"....+@+........#$%&.....",
"....*=-#......;>,,%.....",
"....',,)#....+!,,,$.....",
"....~,,,{]..;!,,,^#.....",
"....#),,,/;;(=,,_:......",
".....#<,,,[},,,|1.......",
"......23,,,,,,45........",
".......&6,,,,678........",
".......]9,,,,0..........",
"......2{,,,,,>;.........",
".....a',,,=,,,b.........",
"....:c,,,{de,,=f........",
"....%,,,g].&=,,hi.......",
"....e,,j@...k,,,l]......",
"....mn~#....]o,,,p......",
".............qr,,{......",
"..............s%em......",
"........................",
"........................",
"........................",
"........................"};
